<svg xmlns="http://www.w3.org/2000/svg" xmlns:xlink="http://www.w3.org/1999/xlink" width="1024" height="1024" fill="#ffffff">
  <path transform="scale(2 2)" d="M239.958 53.5878C253.829 53.2861 278.466 51.1812 288.555 60.0963C298.127 68.5538 298.288 86.3599 299.056 98.7189C307.225 100.342 328.025 109.783 335.446 114.407C354.636 97.9632 368.427 81.9523 391.755 105.081L401.754 115.109C408.802 122.233 415.968 127.85 417.316 138.472C419.716 157.385 406.015 162.384 396.859 174.567L396.657 174.838C398.181 178.763 400.988 182.999 402.839 186.947C406.499 194.755 409.476 203.016 412.151 211.212C419.365 214.678 433.197 213.681 442.501 217.534C459.551 224.593 457.706 238.191 457.737 252.635C457.764 265.061 460.229 278.714 450.473 288.348C439.146 299.532 424.105 294.006 412.501 298.702L412.151 298.845C409.545 303.643 407.661 310.462 405.301 315.743C402.784 321.375 398.493 327.971 396.657 333.552C402.652 343.364 415.637 348.791 417.697 362.847C419.925 378.053 410.834 386.177 401.199 395.837C392.78 404.277 385.522 414.356 372.966 416.042C357.308 418.145 345.876 404.46 334.527 395.772C330.468 396.826 323.059 401.568 318.382 403.441C291.596 414.164 301.179 404.114 297.178 435.06C295.49 448.115 284.253 456.699 271.437 457.125C260.098 457.319 235.867 458.824 227.132 453.249C209.467 441.973 216.738 412.095 211.597 409.665C207.865 407.901 203.333 407.045 199.394 405.675C191.411 402.9 183.757 399.402 176.403 395.247C168.961 403.145 156.748 415.019 146.189 416.229C131.116 417.956 123.647 408.855 114.194 399.376C105.841 391.001 95.5921 383.575 94.343 370.99C92.7523 354.962 106.021 345.08 115.565 333.552C109.483 322.454 103.482 311.205 100.366 298.845C89.9173 296.75 74.8248 297.718 65.8901 292.048C52.0409 283.259 54.2834 268.92 54.2548 254.815C54.2349 244.981 52.7052 234.709 58.4601 226.062C67.547 212.409 86.1224 214.997 100.366 212.115C105.086 200.118 107.656 185.169 115.565 174.838C107.231 167.209 94.7107 153.096 94.4698 141.875C94.1713 127.968 104.574 120.641 113.465 111.852C122.461 102.958 128.261 94.2698 141.997 94.0945C154.139 93.9395 168.529 105.893 177.227 114.407C184.553 108.919 204.122 101.15 213.184 98.7189C214.579 79.5859 214.956 55.2444 239.958 53.5878ZM242.423 74.9983C240.294 75.3439 239.136 76.131 237.672 77.6747L237.582 77.9891C234.897 87.6961 236.521 103.8 232.558 112.185C229.754 118.119 222.193 118.27 216.728 119.957C207.077 122.937 197.868 126.775 189.177 131.925C184.215 134.866 179.885 138.472 173.795 136.737C164.444 134.071 146.735 112.466 140.498 115.847C135.89 118.344 130.689 125.329 126.823 129.133C122.827 133.064 115.687 137.104 116.294 143.48L116.483 143.768C121.815 151.773 136.067 164.119 139.03 170.657C141.907 177.004 136.075 183.344 133.11 188.45C127.722 197.726 123.923 207.48 121.118 217.84C116.823 233.712 117.948 231.926 101.931 233.781C98.0324 234.232 76.6025 235.567 75.6326 239.235C74.6466 242.964 74.7073 264.532 75.2513 270.167C75.8003 275.854 84.9013 275.253 89.1411 275.802C93.8345 276.411 110.41 277.919 113.925 279.344C120.009 281.81 119.946 290.078 121.75 295.357C125.34 305.866 129.95 315.397 136.132 324.617C138.654 328.379 141.872 332.067 140.431 336.947C138.151 344.665 113.787 364.305 116.061 370.109C116.969 372.427 135.795 390.405 138.651 392.833C143.927 397.32 148.124 391.83 152.025 388.265C155.386 385.194 168.574 373.008 171.731 371.474C178.715 368.08 184.099 374.353 189.825 377.481C199.153 382.576 208.998 386.394 219.341 388.843C223.763 389.89 229.495 390.595 231.828 395.023C235.661 402.299 233.544 432.872 239.894 435.128C242.383 436.011 266.768 435.629 270.537 435.53C277.562 434.668 276.458 426.204 276.913 420.958L278.404 405.38C279.971 387.311 283.708 391.753 298.788 387.169C305.839 385.026 313.241 381.813 319.719 378.305C326.687 374.533 333.632 367.573 341.581 373.329C348.087 378.041 363.334 392.67 369.332 395.247C376.45 393.111 381.522 385.553 386.481 380.422C394.572 372.052 401.289 370.333 390.925 359.066C386.688 354.461 374.893 342.697 372.788 338.029C369.848 331.508 374.782 326.653 378.027 321.492C383.546 312.715 387.686 302.845 390.8 292.979C395.178 279.107 393.542 279.153 410.085 277.05C417.506 276.107 436.006 276.607 436.951 268.385C437.356 264.855 437.801 243.376 436.724 240.747C434.655 235.692 414.49 233.63 408.511 232.698C391.873 230.104 394.077 227.997 390.095 213.597C387.341 203.639 382.759 194.288 377.578 185.391C374.676 180.407 370.566 175.954 372.866 169.776C377.161 158.242 402.882 147.431 393.883 137.104C389.399 131.958 379.715 122.526 374.518 118.011C368.762 113.012 365.312 117.062 360.666 121.064C356.462 124.685 344.344 135.894 340.088 137.685C332.385 140.926 326.271 133.756 320.044 130.363C309.941 124.857 300.287 121.508 289.287 118.318C284.975 117.067 281.287 115.868 279.382 111.333C276.388 104.207 278.056 78.2557 272.797 75.9204C269.84 74.6074 246.585 74.7035 242.423 74.9983Z" fill="#ffffff"/>
  <path transform="scale(2 2)" d="M253.11 159.388L253.335 159.374C302.643 156.487 348.16 199.257 350.749 248.415C353.541 301.408 311.942 345.791 259.312 348.503C208.772 349.251 163.369 311.801 161.292 259.98C159.124 205.873 198.635 161.61 253.11 159.388ZM252.192 180.501C210.869 184.307 178.562 218.118 182.599 260.639C187.184 308.933 237.777 340.616 283.264 321.815C277.244 315.589 268.917 305.062 263.728 297.938C254.724 300.565 241.866 298.34 233.95 293.966C223.283 288.072 205.829 267.441 212.778 254.717C217.544 245.989 229.399 248.979 232.305 257.404C237.04 280.984 262.702 283.799 274.231 265.886C282.482 253.064 276.059 236.561 261.531 232.131C256.081 230.469 251.067 230.305 249.442 223.75C247.945 217.715 251.612 211.328 257.827 210.135C264.931 208.77 275.644 213.627 281.321 217.61C297.996 229.31 299.721 242.628 299.754 260.636L322.979 283.68C338.983 246.446 322.291 202.748 284.505 186.531C275.501 182.667 262.172 179.301 252.192 180.501ZM289.835 281.488C287.951 284.088 285.732 285.863 283.264 287.886C289.402 295.433 295.636 303.164 302.298 310.251L302.756 310.289L303.169 309.908C305.633 307.444 308.092 304.998 310.381 302.369C304.003 295.717 295.603 288.367 289.835 281.488Z" fill="#ffffff"/>
</svg>