<svg xmlns="http://www.w3.org/2000/svg" xmlns:xlink="http://www.w3.org/1999/xlink" width="2560" zoomAndPan="magnify" viewBox="0 0 1920 419.999985" height="560" preserveAspectRatio="xMidYMid meet" version="1.0"><metadata/><defs><filter x="0%" y="0%" width="100%" height="100%" id="26ea231fec"><feColorMatrix values="0 0 0 0 1 0 0 0 0 1 0 0 0 0 1 0 0 0 1 0" color-interpolation-filters="sRGB"/></filter><g/><clipPath id="7782bc2920"><path d="M 0 0 L 1920 0 L 1920 420 L 0 420 Z M 0 0 " clip-rule="nonzero"/></clipPath><radialGradient gradientTransform="matrix(0.999872, 0, 0, 1.000128, -157.506075, -30.414548)" gradientUnits="userSpaceOnUse" r="1825.362503" cx="228.336811" id="e487c5d6de" cy="34.501257" fx="228.336811" fy="34.501257"><stop stop-opacity="1" stop-color="rgb(40.47699%, 67.706299%, 99.980164%)" offset="0"/><stop stop-opacity="1" stop-color="rgb(40.611267%, 67.50946%, 99.952698%)" offset="0.0078125"/><stop stop-opacity="1" stop-color="rgb(40.699768%, 67.378235%, 99.934387%)" offset="0.0117188"/><stop stop-opacity="1" stop-color="rgb(40.788269%, 67.247009%, 99.916077%)" offset="0.015625"/><stop stop-opacity="1" stop-color="rgb(40.878296%, 67.114258%, 99.897766%)" offset="0.0195312"/><stop stop-opacity="1" stop-color="rgb(40.966797%, 66.983032%, 99.879456%)" offset="0.0234375"/><stop stop-opacity="1" stop-color="rgb(41.055298%, 66.851807%, 99.861145%)" offset="0.0273438"/><stop stop-opacity="1" stop-color="rgb(41.143799%, 66.719055%, 99.842834%)" offset="0.03125"/><stop stop-opacity="1" stop-color="rgb(41.233826%, 66.58783%, 99.824524%)" offset="0.0351562"/><stop stop-opacity="1" stop-color="rgb(41.322327%, 66.456604%, 99.806213%)" offset="0.0390625"/><stop stop-opacity="1" stop-color="rgb(41.410828%, 66.323853%, 99.787903%)" offset="0.0429688"/><stop stop-opacity="1" stop-color="rgb(41.499329%, 66.192627%, 99.769592%)" offset="0.046875"/><stop stop-opacity="1" stop-color="rgb(41.589355%, 66.061401%, 99.751282%)" offset="0.0507812"/><stop stop-opacity="1" stop-color="rgb(41.677856%, 65.92865%, 99.732971%)" offset="0.0546875"/><stop stop-opacity="1" stop-color="rgb(41.766357%, 65.797424%, 99.714661%)" offset="0.0585938"/><stop stop-opacity="1" stop-color="rgb(41.854858%, 65.666199%, 99.69635%)" offset="0.0625"/><stop stop-opacity="1" stop-color="rgb(41.944885%, 65.533447%, 99.676514%)" offset="0.0664062"/><stop stop-opacity="1" stop-color="rgb(42.033386%, 65.402222%, 99.658203%)" offset="0.0703125"/><stop stop-opacity="1" stop-color="rgb(42.121887%, 65.270996%, 99.639893%)" offset="0.0742188"/><stop stop-opacity="1" stop-color="rgb(42.210388%, 65.138245%, 99.621582%)" offset="0.078125"/><stop stop-opacity="1" stop-color="rgb(42.300415%, 65.007019%, 99.603271%)" offset="0.0820312"/><stop stop-opacity="1" stop-color="rgb(42.388916%, 64.875793%, 99.584961%)" offset="0.0859375"/><stop stop-opacity="1" stop-color="rgb(42.477417%, 64.743042%, 99.56665%)" offset="0.0898438"/><stop stop-opacity="1" stop-color="rgb(42.565918%, 64.611816%, 99.54834%)" offset="0.09375"/><stop stop-opacity="1" stop-color="rgb(42.654419%, 64.480591%, 99.530029%)" offset="0.0976562"/><stop stop-opacity="1" stop-color="rgb(42.744446%, 64.347839%, 99.511719%)" offset="0.101562"/><stop stop-opacity="1" stop-color="rgb(42.832947%, 64.216614%, 99.493408%)" offset="0.105469"/><stop stop-opacity="1" stop-color="rgb(42.921448%, 64.085388%, 99.475098%)" offset="0.109375"/><stop stop-opacity="1" stop-color="rgb(43.009949%, 63.952637%, 99.456787%)" offset="0.113281"/><stop stop-opacity="1" stop-color="rgb(43.099976%, 63.821411%, 99.438477%)" offset="0.117188"/><stop stop-opacity="1" stop-color="rgb(43.188477%, 63.690186%, 99.420166%)" offset="0.121094"/><stop stop-opacity="1" stop-color="rgb(43.276978%, 63.557434%, 99.401855%)" offset="0.125"/><stop stop-opacity="1" stop-color="rgb(43.365479%, 63.426208%, 99.383545%)" offset="0.128906"/><stop stop-opacity="1" stop-color="rgb(43.455505%, 63.294983%, 99.363708%)" offset="0.132812"/><stop stop-opacity="1" stop-color="rgb(43.544006%, 63.162231%, 99.345398%)" offset="0.136719"/><stop stop-opacity="1" stop-color="rgb(43.632507%, 63.031006%, 99.327087%)" offset="0.140625"/><stop stop-opacity="1" stop-color="rgb(43.721008%, 62.89978%, 99.308777%)" offset="0.144531"/><stop stop-opacity="1" stop-color="rgb(43.811035%, 62.768555%, 99.290466%)" offset="0.148438"/><stop stop-opacity="1" stop-color="rgb(43.899536%, 62.635803%, 99.272156%)" offset="0.152344"/><stop stop-opacity="1" stop-color="rgb(43.988037%, 62.504578%, 99.253845%)" offset="0.15625"/><stop stop-opacity="1" stop-color="rgb(44.076538%, 62.373352%, 99.235535%)" offset="0.160156"/><stop stop-opacity="1" stop-color="rgb(44.166565%, 62.240601%, 99.217224%)" offset="0.164062"/><stop stop-opacity="1" stop-color="rgb(44.255066%, 62.109375%, 99.198914%)" offset="0.167969"/><stop stop-opacity="1" stop-color="rgb(44.343567%, 61.978149%, 99.180603%)" offset="0.171875"/><stop stop-opacity="1" stop-color="rgb(44.432068%, 61.845398%, 99.162292%)" offset="0.175781"/><stop stop-opacity="1" stop-color="rgb(44.522095%, 61.714172%, 99.143982%)" offset="0.179688"/><stop stop-opacity="1" stop-color="rgb(44.610596%, 61.582947%, 99.125671%)" offset="0.183594"/><stop stop-opacity="1" stop-color="rgb(44.699097%, 61.450195%, 99.107361%)" offset="0.1875"/><stop stop-opacity="1" stop-color="rgb(44.787598%, 61.31897%, 99.08905%)" offset="0.191406"/><stop stop-opacity="1" stop-color="rgb(44.876099%, 61.187744%, 99.07074%)" offset="0.195312"/><stop stop-opacity="1" stop-color="rgb(44.966125%, 61.054993%, 99.052429%)" offset="0.199219"/><stop stop-opacity="1" stop-color="rgb(45.054626%, 60.923767%, 99.032593%)" offset="0.203125"/><stop stop-opacity="1" stop-color="rgb(45.143127%, 60.792542%, 99.014282%)" offset="0.207031"/><stop stop-opacity="1" stop-color="rgb(45.231628%, 60.65979%, 98.995972%)" offset="0.210938"/><stop stop-opacity="1" stop-color="rgb(45.321655%, 60.528564%, 98.977661%)" offset="0.214844"/><stop stop-opacity="1" stop-color="rgb(45.410156%, 60.397339%, 98.959351%)" offset="0.21875"/><stop stop-opacity="1" stop-color="rgb(45.498657%, 60.264587%, 98.94104%)" offset="0.222656"/><stop stop-opacity="1" stop-color="rgb(45.587158%, 60.133362%, 98.922729%)" offset="0.226562"/><stop stop-opacity="1" stop-color="rgb(45.677185%, 60.002136%, 98.904419%)" offset="0.230469"/><stop stop-opacity="1" stop-color="rgb(45.765686%, 59.869385%, 98.886108%)" offset="0.234375"/><stop stop-opacity="1" stop-color="rgb(45.854187%, 59.738159%, 98.867798%)" offset="0.238281"/><stop stop-opacity="1" stop-color="rgb(45.942688%, 59.606934%, 98.849487%)" offset="0.242188"/><stop stop-opacity="1" stop-color="rgb(46.032715%, 59.474182%, 98.831177%)" offset="0.246094"/><stop stop-opacity="1" stop-color="rgb(46.121216%, 59.342957%, 98.812866%)" offset="0.25"/><stop stop-opacity="1" stop-color="rgb(46.253967%, 59.144592%, 98.7854%)" offset="0.253906"/><stop stop-opacity="1" stop-color="rgb(46.432495%, 58.882141%, 98.748779%)" offset="0.261719"/><stop stop-opacity="1" stop-color="rgb(46.609497%, 58.618164%, 98.710632%)" offset="0.269531"/><stop stop-opacity="1" stop-color="rgb(46.788025%, 58.355713%, 98.674011%)" offset="0.277344"/><stop stop-opacity="1" stop-color="rgb(46.965027%, 58.091736%, 98.63739%)" offset="0.285156"/><stop stop-opacity="1" stop-color="rgb(47.142029%, 57.827759%, 98.600769%)" offset="0.292969"/><stop stop-opacity="1" stop-color="rgb(47.320557%, 57.565308%, 98.564148%)" offset="0.300781"/><stop stop-opacity="1" stop-color="rgb(47.497559%, 57.301331%, 98.527527%)" offset="0.308594"/><stop stop-opacity="1" stop-color="rgb(47.676086%, 57.037354%, 98.490906%)" offset="0.316406"/><stop stop-opacity="1" stop-color="rgb(47.853088%, 56.774902%, 98.454285%)" offset="0.324219"/><stop stop-opacity="1" stop-color="rgb(48.031616%, 56.510925%, 98.416138%)" offset="0.332031"/><stop stop-opacity="1" stop-color="rgb(48.208618%, 56.246948%, 98.379517%)" offset="0.339844"/><stop stop-opacity="1" stop-color="rgb(48.387146%, 55.984497%, 98.342896%)" offset="0.347656"/><stop stop-opacity="1" stop-color="rgb(48.564148%, 55.72052%, 98.306274%)" offset="0.355469"/><stop stop-opacity="1" stop-color="rgb(48.742676%, 55.456543%, 98.269653%)" offset="0.363281"/><stop stop-opacity="1" stop-color="rgb(48.919678%, 55.194092%, 98.233032%)" offset="0.371094"/><stop stop-opacity="1" stop-color="rgb(49.098206%, 54.930115%, 98.196411%)" offset="0.378906"/><stop stop-opacity="1" stop-color="rgb(49.275208%, 54.666138%, 98.15979%)" offset="0.386719"/><stop stop-opacity="1" stop-color="rgb(49.453735%, 54.403687%, 98.123169%)" offset="0.394531"/><stop stop-opacity="1" stop-color="rgb(49.630737%, 54.139709%, 98.085022%)" offset="0.402344"/><stop stop-opacity="1" stop-color="rgb(49.809265%, 53.877258%, 98.048401%)" offset="0.410156"/><stop stop-opacity="1" stop-color="rgb(49.986267%, 53.613281%, 98.01178%)" offset="0.417969"/><stop stop-opacity="1" stop-color="rgb(50.164795%, 53.349304%, 97.975159%)" offset="0.425781"/><stop stop-opacity="1" stop-color="rgb(50.341797%, 53.086853%, 97.938538%)" offset="0.433594"/><stop stop-opacity="1" stop-color="rgb(50.520325%, 52.822876%, 97.901917%)" offset="0.441406"/><stop stop-opacity="1" stop-color="rgb(50.697327%, 52.558899%, 97.865295%)" offset="0.449219"/><stop stop-opacity="1" stop-color="rgb(50.875854%, 52.296448%, 97.828674%)" offset="0.457031"/><stop stop-opacity="1" stop-color="rgb(51.052856%, 52.032471%, 97.792053%)" offset="0.464844"/><stop stop-opacity="1" stop-color="rgb(51.231384%, 51.768494%, 97.753906%)" offset="0.472656"/><stop stop-opacity="1" stop-color="rgb(51.408386%, 51.506042%, 97.717285%)" offset="0.480469"/><stop stop-opacity="1" stop-color="rgb(51.585388%, 51.242065%, 97.680664%)" offset="0.488281"/><stop stop-opacity="1" stop-color="rgb(51.763916%, 50.978088%, 97.644043%)" offset="0.496094"/><stop stop-opacity="1" stop-color="rgb(51.896667%, 50.78125%, 97.616577%)" offset="0.503906"/><stop stop-opacity="1" stop-color="rgb(51.986694%, 50.650024%, 97.598267%)" offset="0.507812"/><stop stop-opacity="1" stop-color="rgb(52.075195%, 50.517273%, 97.579956%)" offset="0.511719"/><stop stop-opacity="1" stop-color="rgb(52.163696%, 50.386047%, 97.561646%)" offset="0.515625"/><stop stop-opacity="1" stop-color="rgb(52.252197%, 50.254822%, 97.543335%)" offset="0.519531"/><stop stop-opacity="1" stop-color="rgb(52.342224%, 50.12207%, 97.525024%)" offset="0.523438"/><stop stop-opacity="1" stop-color="rgb(52.430725%, 49.990845%, 97.506714%)" offset="0.527344"/><stop stop-opacity="1" stop-color="rgb(52.519226%, 49.859619%, 97.488403%)" offset="0.53125"/><stop stop-opacity="1" stop-color="rgb(52.607727%, 49.728394%, 97.470093%)" offset="0.535156"/><stop stop-opacity="1" stop-color="rgb(52.697754%, 49.595642%, 97.450256%)" offset="0.539062"/><stop stop-opacity="1" stop-color="rgb(52.786255%, 49.464417%, 97.431946%)" offset="0.542969"/><stop stop-opacity="1" stop-color="rgb(52.874756%, 49.333191%, 97.413635%)" offset="0.546875"/><stop stop-opacity="1" stop-color="rgb(52.963257%, 49.200439%, 97.395325%)" offset="0.550781"/><stop stop-opacity="1" stop-color="rgb(53.053284%, 49.069214%, 97.377014%)" offset="0.554688"/><stop stop-opacity="1" stop-color="rgb(53.141785%, 48.937988%, 97.358704%)" offset="0.558594"/><stop stop-opacity="1" stop-color="rgb(53.230286%, 48.805237%, 97.340393%)" offset="0.5625"/><stop stop-opacity="1" stop-color="rgb(53.318787%, 48.674011%, 97.322083%)" offset="0.566406"/><stop stop-opacity="1" stop-color="rgb(53.408813%, 48.542786%, 97.303772%)" offset="0.570312"/><stop stop-opacity="1" stop-color="rgb(53.497314%, 48.410034%, 97.285461%)" offset="0.574219"/><stop stop-opacity="1" stop-color="rgb(53.585815%, 48.278809%, 97.267151%)" offset="0.578125"/><stop stop-opacity="1" stop-color="rgb(53.674316%, 48.147583%, 97.24884%)" offset="0.582031"/><stop stop-opacity="1" stop-color="rgb(53.762817%, 48.014832%, 97.23053%)" offset="0.585938"/><stop stop-opacity="1" stop-color="rgb(53.852844%, 47.883606%, 97.212219%)" offset="0.589844"/><stop stop-opacity="1" stop-color="rgb(53.941345%, 47.75238%, 97.193909%)" offset="0.59375"/><stop stop-opacity="1" stop-color="rgb(54.029846%, 47.619629%, 97.175598%)" offset="0.597656"/><stop stop-opacity="1" stop-color="rgb(54.118347%, 47.488403%, 97.157288%)" offset="0.601562"/><stop stop-opacity="1" stop-color="rgb(54.208374%, 47.357178%, 97.138977%)" offset="0.605469"/><stop stop-opacity="1" stop-color="rgb(54.296875%, 47.224426%, 97.119141%)" offset="0.609375"/><stop stop-opacity="1" stop-color="rgb(54.385376%, 47.093201%, 97.10083%)" offset="0.613281"/><stop stop-opacity="1" stop-color="rgb(54.473877%, 46.961975%, 97.08252%)" offset="0.617188"/><stop stop-opacity="1" stop-color="rgb(54.563904%, 46.829224%, 97.064209%)" offset="0.621094"/><stop stop-opacity="1" stop-color="rgb(54.652405%, 46.697998%, 97.045898%)" offset="0.625"/><stop stop-opacity="1" stop-color="rgb(54.785156%, 46.499634%, 97.018433%)" offset="0.628906"/><stop stop-opacity="1" stop-color="rgb(54.963684%, 46.237183%, 96.981812%)" offset="0.636719"/><stop stop-opacity="1" stop-color="rgb(55.140686%, 45.973206%, 96.94519%)" offset="0.644531"/><stop stop-opacity="1" stop-color="rgb(55.319214%, 45.710754%, 96.908569%)" offset="0.652344"/><stop stop-opacity="1" stop-color="rgb(55.496216%, 45.446777%, 96.871948%)" offset="0.660156"/><stop stop-opacity="1" stop-color="rgb(55.674744%, 45.1828%, 96.835327%)" offset="0.667969"/><stop stop-opacity="1" stop-color="rgb(55.851746%, 44.920349%, 96.79718%)" offset="0.675781"/><stop stop-opacity="1" stop-color="rgb(56.028748%, 44.656372%, 96.760559%)" offset="0.683594"/><stop stop-opacity="1" stop-color="rgb(56.207275%, 44.392395%, 96.723938%)" offset="0.691406"/><stop stop-opacity="1" stop-color="rgb(56.384277%, 44.129944%, 96.687317%)" offset="0.699219"/><stop stop-opacity="1" stop-color="rgb(56.562805%, 43.865967%, 96.650696%)" offset="0.707031"/><stop stop-opacity="1" stop-color="rgb(56.739807%, 43.60199%, 96.614075%)" offset="0.714844"/><stop stop-opacity="1" stop-color="rgb(56.918335%, 43.339539%, 96.577454%)" offset="0.722656"/><stop stop-opacity="1" stop-color="rgb(57.095337%, 43.075562%, 96.540833%)" offset="0.730469"/><stop stop-opacity="1" stop-color="rgb(57.273865%, 42.811584%, 96.502686%)" offset="0.738281"/><stop stop-opacity="1" stop-color="rgb(57.450867%, 42.549133%, 96.466064%)" offset="0.746094"/><stop stop-opacity="1" stop-color="rgb(57.585144%, 42.350769%, 96.438599%)" offset="0.753906"/><stop stop-opacity="1" stop-color="rgb(57.673645%, 42.219543%, 96.420288%)" offset="0.757812"/><stop stop-opacity="1" stop-color="rgb(57.762146%, 42.088318%, 96.401978%)" offset="0.761719"/><stop stop-opacity="1" stop-color="rgb(57.852173%, 41.955566%, 96.383667%)" offset="0.765625"/><stop stop-opacity="1" stop-color="rgb(57.940674%, 41.824341%, 96.365356%)" offset="0.769531"/><stop stop-opacity="1" stop-color="rgb(58.029175%, 41.693115%, 96.347046%)" offset="0.773438"/><stop stop-opacity="1" stop-color="rgb(58.117676%, 41.560364%, 96.328735%)" offset="0.777344"/><stop stop-opacity="1" stop-color="rgb(58.206177%, 41.429138%, 96.310425%)" offset="0.78125"/><stop stop-opacity="1" stop-color="rgb(58.296204%, 41.297913%, 96.292114%)" offset="0.785156"/><stop stop-opacity="1" stop-color="rgb(58.384705%, 41.166687%, 96.273804%)" offset="0.789062"/><stop stop-opacity="1" stop-color="rgb(58.473206%, 41.033936%, 96.255493%)" offset="0.792969"/><stop stop-opacity="1" stop-color="rgb(58.561707%, 40.90271%, 96.237183%)" offset="0.796875"/><stop stop-opacity="1" stop-color="rgb(58.651733%, 40.771484%, 96.218872%)" offset="0.800781"/><stop stop-opacity="1" stop-color="rgb(58.740234%, 40.638733%, 96.200562%)" offset="0.804688"/><stop stop-opacity="1" stop-color="rgb(58.828735%, 40.507507%, 96.182251%)" offset="0.808594"/><stop stop-opacity="1" stop-color="rgb(58.917236%, 40.376282%, 96.162415%)" offset="0.8125"/><stop stop-opacity="1" stop-color="rgb(59.051514%, 40.177917%, 96.134949%)" offset="0.816406"/><stop stop-opacity="1" stop-color="rgb(59.228516%, 39.91394%, 96.098328%)" offset="0.824219"/><stop stop-opacity="1" stop-color="rgb(59.407043%, 39.651489%, 96.061707%)" offset="0.832031"/><stop stop-opacity="1" stop-color="rgb(59.584045%, 39.387512%, 96.025085%)" offset="0.839844"/><stop stop-opacity="1" stop-color="rgb(59.762573%, 39.123535%, 95.988464%)" offset="0.847656"/><stop stop-opacity="1" stop-color="rgb(59.939575%, 38.861084%, 95.951843%)" offset="0.855469"/><stop stop-opacity="1" stop-color="rgb(60.118103%, 38.597107%, 95.915222%)" offset="0.863281"/><stop stop-opacity="1" stop-color="rgb(60.295105%, 38.33313%, 95.878601%)" offset="0.871094"/><stop stop-opacity="1" stop-color="rgb(60.427856%, 38.136292%, 95.849609%)" offset="0.878906"/><stop stop-opacity="1" stop-color="rgb(60.517883%, 38.005066%, 95.831299%)" offset="0.882812"/><stop stop-opacity="1" stop-color="rgb(60.606384%, 37.872314%, 95.812988%)" offset="0.886719"/><stop stop-opacity="1" stop-color="rgb(60.694885%, 37.741089%, 95.794678%)" offset="0.890625"/><stop stop-opacity="1" stop-color="rgb(60.783386%, 37.609863%, 95.776367%)" offset="0.894531"/><stop stop-opacity="1" stop-color="rgb(60.873413%, 37.477112%, 95.758057%)" offset="0.898438"/><stop stop-opacity="1" stop-color="rgb(60.961914%, 37.345886%, 95.739746%)" offset="0.902344"/><stop stop-opacity="1" stop-color="rgb(61.050415%, 37.214661%, 95.721436%)" offset="0.90625"/><stop stop-opacity="1" stop-color="rgb(61.183167%, 37.016296%, 95.69397%)" offset="0.910156"/><stop stop-opacity="1" stop-color="rgb(61.361694%, 36.753845%, 95.657349%)" offset="0.917969"/><stop stop-opacity="1" stop-color="rgb(61.538696%, 36.489868%, 95.620728%)" offset="0.925781"/><stop stop-opacity="1" stop-color="rgb(61.717224%, 36.225891%, 95.584106%)" offset="0.933594"/><stop stop-opacity="1" stop-color="rgb(61.849976%, 36.029053%, 95.556641%)" offset="0.941406"/><stop stop-opacity="1" stop-color="rgb(61.940002%, 35.897827%, 95.53833%)" offset="0.945312"/><stop stop-opacity="1" stop-color="rgb(62.028503%, 35.765076%, 95.518494%)" offset="0.949219"/><stop stop-opacity="1" stop-color="rgb(62.117004%, 35.63385%, 95.500183%)" offset="0.953125"/><stop stop-opacity="1" stop-color="rgb(62.249756%, 35.435486%, 95.472717%)" offset="0.957031"/><stop stop-opacity="1" stop-color="rgb(62.428284%, 35.173035%, 95.436096%)" offset="0.964844"/><stop stop-opacity="1" stop-color="rgb(62.561035%, 34.97467%, 95.40863%)" offset="0.972656"/><stop stop-opacity="1" stop-color="rgb(62.649536%, 34.843445%, 95.39032%)" offset="0.976562"/><stop stop-opacity="1" stop-color="rgb(62.783813%, 34.645081%, 95.362854%)" offset="0.980469"/><stop stop-opacity="1" stop-color="rgb(62.916565%, 34.448242%, 95.335388%)" offset="0.988281"/><stop stop-opacity="1" stop-color="rgb(63.049316%, 34.249878%, 95.307922%)" offset="0.992188"/><stop stop-opacity="1" stop-color="rgb(63.139343%, 34.118652%, 95.289612%)" offset="1"/></radialGradient><clipPath id="45a426db7f"><rect x="0" width="1920" y="0" height="420"/></clipPath><clipPath id="3fc351ac34"><rect x="0" width="1920" y="0" height="420"/></clipPath><clipPath id="b53c22e157"><rect x="0" width="1920" y="0" height="420"/></clipPath><mask id="5da5b23e54"><g filter="url(#26ea231fec)"><g transform="matrix(1, 0, 0, 1, 0, 0)"><g clip-path="url(#b53c22e157)"><g transform="matrix(1, 0, 0, 1, 0, 0)"><g clip-path="url(#3fc351ac34)"><g fill="#000000" fill-opacity="1"><g transform="translate(70.960649, 323.999975)"><g><path d="M 65.703125 -240.78125 L 204.671875 -240.78125 C 210.398438 -240.78125 214.066406 -239.117188 215.671875 -235.796875 C 217.285156 -232.472656 218.09375 -225.421875 218.09375 -214.640625 C 218.09375 -203.410156 217.226562 -196.015625 215.5 -192.453125 C 213.78125 -188.898438 210.171875 -187.125 204.671875 -187.125 L 88.0625 -187.125 C 80.945312 -187.125 76.472656 -185.863281 74.640625 -183.34375 C 72.804688 -180.820312 71.890625 -175.203125 71.890625 -166.484375 C 71.890625 -157.546875 72.804688 -151.753906 74.640625 -149.109375 C 76.472656 -146.472656 80.945312 -145.15625 88.0625 -145.15625 L 168.203125 -145.15625 C 179.671875 -145.15625 188.898438 -144.125 195.890625 -142.0625 C 202.890625 -140 208.222656 -136.328125 211.890625 -131.046875 C 215.554688 -125.773438 218.078125 -118.378906 219.453125 -108.859375 C 220.835938 -99.347656 221.53125 -87.023438 221.53125 -71.890625 C 221.53125 -57.210938 220.894531 -45.226562 219.625 -35.9375 C 218.363281 -26.65625 215.898438 -19.375 212.234375 -14.09375 C 208.566406 -8.820312 203.175781 -5.15625 196.0625 -3.09375 C 188.957031 -1.03125 179.671875 0 168.203125 0 L 25.109375 0 C 19.378906 0 15.648438 -1.773438 13.921875 -5.328125 C 12.203125 -8.878906 11.34375 -15.929688 11.34375 -26.484375 C 11.34375 -37.953125 12.203125 -45.40625 13.921875 -48.84375 C 15.648438 -52.28125 19.378906 -54 25.109375 -54 L 145.5 -54 C 152.84375 -54 157.429688 -55.375 159.265625 -58.125 C 161.097656 -60.882812 162.015625 -66.847656 162.015625 -76.015625 C 162.015625 -85.421875 161.097656 -91.554688 159.265625 -94.421875 C 157.429688 -97.285156 152.84375 -98.71875 145.5 -98.71875 L 65.703125 -98.71875 C 54.234375 -98.71875 45 -99.75 38 -101.8125 C 31.007812 -103.882812 25.625 -107.5 21.84375 -112.65625 C 18.0625 -117.8125 15.539062 -125.03125 14.28125 -134.3125 C 13.019531 -143.601562 12.390625 -155.472656 12.390625 -169.921875 C 12.390625 -184.367188 13.019531 -196.238281 14.28125 -205.53125 C 15.539062 -214.820312 18.0625 -221.988281 21.84375 -227.03125 C 25.625 -232.070312 31.007812 -235.625 38 -237.6875 C 45 -239.75 54.234375 -240.78125 65.703125 -240.78125 Z M 65.703125 -240.78125 "/></g></g></g><g fill="#000000" fill-opacity="1"><g transform="translate(305.215698, 323.999975)"><g><path d="M 71.546875 -183 L 195.390625 -183 C 201.117188 -183 204.726562 -181.335938 206.21875 -178.015625 C 207.707031 -174.691406 208.453125 -167.640625 208.453125 -156.859375 C 208.453125 -146.535156 207.707031 -139.710938 206.21875 -136.390625 C 204.726562 -133.066406 201.117188 -131.40625 195.390625 -131.40625 L 98.71875 -131.40625 C 92.53125 -131.40625 87.882812 -130.3125 84.78125 -128.125 C 81.6875 -125.945312 79.625 -122.050781 78.59375 -116.4375 C 77.5625 -110.820312 77.046875 -102.625 77.046875 -91.84375 C 77.046875 -80.601562 77.5625 -72.117188 78.59375 -66.390625 C 79.625 -60.660156 81.6875 -56.757812 84.78125 -54.6875 C 87.882812 -52.625 92.53125 -51.59375 98.71875 -51.59375 L 195.734375 -51.59375 C 201.234375 -51.59375 204.785156 -49.929688 206.390625 -46.609375 C 207.992188 -43.285156 208.796875 -36.234375 208.796875 -25.453125 C 208.796875 -15.128906 208.050781 -8.304688 206.5625 -4.984375 C 205.070312 -1.660156 201.460938 0 195.734375 0 L 71.546875 0 C 59.160156 0 49.179688 -1.203125 41.609375 -3.609375 C 34.046875 -6.015625 28.257812 -10.425781 24.25 -16.84375 C 20.238281 -23.269531 17.546875 -32.5625 16.171875 -44.71875 C 14.796875 -56.875 14.109375 -72.582031 14.109375 -91.84375 C 14.109375 -110.414062 14.796875 -125.664062 16.171875 -137.59375 C 17.546875 -149.519531 20.179688 -158.75 24.078125 -165.28125 C 27.972656 -171.820312 33.757812 -176.410156 41.4375 -179.046875 C 49.125 -181.679688 59.160156 -183 71.546875 -183 Z M 71.546875 -183 "/></g></g></g><g fill="#000000" fill-opacity="1"><g transform="translate(526.399306, 323.999975)"><g><path d="M 16.859375 -13.078125 L 16.859375 -169.578125 C 16.859375 -176.460938 18.921875 -180.878906 23.046875 -182.828125 C 27.171875 -184.773438 35.539062 -185.75 48.15625 -185.75 C 61.6875 -185.75 70.457031 -184.71875 74.46875 -182.65625 C 78.488281 -180.59375 80.5 -176.234375 80.5 -169.578125 L 80.5 -13.078125 C 80.5 -6.191406 78.429688 -1.832031 74.296875 0 C 70.171875 1.832031 61.800781 2.75 49.1875 2.75 C 40.25 2.75 33.425781 2.347656 28.71875 1.546875 C 24.019531 0.742188 20.867188 -0.800781 19.265625 -3.09375 C 17.660156 -5.382812 16.859375 -8.710938 16.859375 -13.078125 Z M 22.359375 -218.4375 L 22.359375 -248.015625 C 22.359375 -253.285156 23.960938 -256.609375 27.171875 -257.984375 C 30.378906 -259.359375 37.488281 -260.046875 48.5 -260.046875 C 59.28125 -260.046875 66.332031 -259.359375 69.65625 -257.984375 C 72.976562 -256.609375 74.640625 -253.285156 74.640625 -248.015625 L 74.640625 -218.4375 C 74.640625 -212.925781 72.976562 -209.425781 69.65625 -207.9375 C 66.332031 -206.445312 59.28125 -205.703125 48.5 -205.703125 C 37.488281 -205.703125 30.378906 -206.503906 27.171875 -208.109375 C 23.960938 -209.710938 22.359375 -213.15625 22.359375 -218.4375 Z M 22.359375 -218.4375 "/></g></g></g><g fill="#000000" fill-opacity="1"><g transform="translate(623.403631, 323.999975)"><g><path d="M 239.0625 -227.03125 L 239.0625 -13.765625 C 239.0625 -6.648438 236.941406 -2.117188 232.703125 -0.171875 C 228.460938 1.773438 219.691406 2.75 206.390625 2.75 C 197.210938 2.75 190.21875 2.347656 185.40625 1.546875 C 180.59375 0.742188 177.328125 -0.859375 175.609375 -3.265625 C 173.890625 -5.671875 173.03125 -9.171875 173.03125 -13.765625 L 173.03125 -97 L 82.90625 -97 L 82.90625 -13.765625 C 82.90625 -9.171875 82.039062 -5.671875 80.3125 -3.265625 C 78.59375 -0.859375 75.328125 0.742188 70.515625 1.546875 C 65.703125 2.347656 58.59375 2.75 49.1875 2.75 C 36.113281 2.75 27.457031 1.773438 23.21875 -0.171875 C 18.976562 -2.117188 16.859375 -6.648438 16.859375 -13.765625 L 16.859375 -227.03125 C 16.859375 -234.132812 18.976562 -238.660156 23.21875 -240.609375 C 27.457031 -242.566406 36.113281 -243.546875 49.1875 -243.546875 C 58.59375 -243.546875 65.703125 -243.144531 70.515625 -242.34375 C 75.328125 -241.539062 78.59375 -239.988281 80.3125 -237.6875 C 82.039062 -235.394531 82.90625 -231.84375 82.90625 -227.03125 L 82.90625 -152.390625 L 173.03125 -152.390625 L 173.03125 -227.03125 C 173.03125 -231.84375 173.890625 -235.394531 175.609375 -237.6875 C 177.328125 -239.988281 180.59375 -241.539062 185.40625 -242.34375 C 190.21875 -243.144531 197.210938 -243.546875 206.390625 -243.546875 C 219.691406 -243.546875 228.460938 -242.566406 232.703125 -240.609375 C 236.941406 -238.660156 239.0625 -234.132812 239.0625 -227.03125 Z M 239.0625 -227.03125 "/></g></g></g><g fill="#000000" fill-opacity="1"><g transform="translate(879.329854, 323.999975)"><g><path d="M 71.546875 -183 L 163.046875 -183 C 179.785156 -183 191.765625 -178.351562 198.984375 -169.0625 C 206.210938 -159.78125 209.828125 -144.703125 209.828125 -123.828125 L 209.828125 -78.078125 L 74.640625 -78.078125 C 75.097656 -65.472656 76.816406 -57.046875 79.796875 -52.796875 C 82.785156 -48.554688 88.289062 -46.4375 96.3125 -46.4375 L 194.6875 -46.4375 C 200.195312 -46.4375 203.753906 -44.945312 205.359375 -41.96875 C 206.960938 -38.988281 207.765625 -32.566406 207.765625 -22.703125 C 207.765625 -13.523438 207.019531 -7.445312 205.53125 -4.46875 C 204.039062 -1.488281 200.425781 0 194.6875 0 L 71.546875 0 C 59.160156 0 49.179688 -1.203125 41.609375 -3.609375 C 34.046875 -6.015625 28.257812 -10.425781 24.25 -16.84375 C 20.238281 -23.269531 17.546875 -32.5625 16.171875 -44.71875 C 14.796875 -56.875 14.109375 -72.582031 14.109375 -91.84375 C 14.109375 -110.414062 14.796875 -125.664062 16.171875 -137.59375 C 17.546875 -149.519531 20.179688 -158.75 24.078125 -165.28125 C 27.972656 -171.820312 33.757812 -176.410156 41.4375 -179.046875 C 49.125 -181.679688 59.160156 -183 71.546875 -183 Z M 96.3125 -141.03125 C 90.8125 -141.03125 86.566406 -140.226562 83.578125 -138.625 C 80.597656 -137.019531 78.476562 -133.804688 77.21875 -128.984375 C 75.957031 -124.171875 75.097656 -117.066406 74.640625 -107.671875 L 156.515625 -107.671875 C 156.515625 -121.203125 155.132812 -130.144531 152.375 -134.5 C 149.625 -138.851562 144.925781 -141.03125 138.28125 -141.03125 Z M 96.3125 -141.03125 "/></g></g></g><g fill="#000000" fill-opacity="1"><g transform="translate(1102.577334, 323.999975)"><g><path d="M 16.859375 -13.078125 L 16.859375 -250.421875 C 16.859375 -257.066406 18.921875 -261.363281 23.046875 -263.3125 C 27.171875 -265.269531 35.539062 -266.25 48.15625 -266.25 C 61.6875 -266.25 70.457031 -265.269531 74.46875 -263.3125 C 78.488281 -261.363281 80.5 -257.066406 80.5 -250.421875 L 80.5 -13.078125 C 80.5 -6.191406 78.429688 -1.832031 74.296875 0 C 70.171875 1.832031 61.800781 2.75 49.1875 2.75 C 40.25 2.75 33.425781 2.347656 28.71875 1.546875 C 24.019531 0.742188 20.867188 -0.800781 19.265625 -3.09375 C 17.660156 -5.382812 16.859375 -8.710938 16.859375 -13.078125 Z M 16.859375 -13.078125 "/></g></g></g><g fill="#000000" fill-opacity="1"><g transform="translate(1199.58166, 323.999975)"><g><path d="M 80.5 -51.59375 L 139.65625 -51.59375 C 146.082031 -51.59375 150.785156 -52.625 153.765625 -54.6875 C 156.742188 -56.757812 158.75 -60.660156 159.78125 -66.390625 C 160.8125 -72.117188 161.328125 -80.257812 161.328125 -90.8125 C 161.328125 -102.28125 160.8125 -110.878906 159.78125 -116.609375 C 158.75 -122.335938 156.679688 -126.234375 153.578125 -128.296875 C 150.484375 -130.367188 145.84375 -131.40625 139.65625 -131.40625 L 80.5 -131.40625 Z M 16.859375 -183 L 166.828125 -183 C 179.210938 -183 189.1875 -181.796875 196.75 -179.390625 C 204.320312 -176.984375 210.113281 -172.507812 214.125 -165.96875 C 218.144531 -159.4375 220.84375 -150.09375 222.21875 -137.9375 C 223.59375 -125.78125 224.28125 -110.070312 224.28125 -90.8125 C 224.28125 -72.238281 223.59375 -57.046875 222.21875 -45.234375 C 220.84375 -33.421875 218.144531 -24.242188 214.125 -17.703125 C 210.113281 -11.171875 204.320312 -6.585938 196.75 -3.953125 C 189.1875 -1.316406 179.210938 0 166.828125 0 L 80.5 0 L 80.5 58.484375 C 80.5 65.128906 78.488281 69.425781 74.46875 71.375 C 70.457031 73.320312 61.6875 74.296875 48.15625 74.296875 C 35.539062 74.296875 27.171875 73.378906 23.046875 71.546875 C 18.921875 69.710938 16.859375 65.359375 16.859375 58.484375 Z M 16.859375 -183 "/></g></g></g><g fill="#000000" fill-opacity="1"><g transform="translate(1437.964634, 323.999975)"><g><path d="M 71.546875 -183 L 163.046875 -183 C 179.785156 -183 191.765625 -178.351562 198.984375 -169.0625 C 206.210938 -159.78125 209.828125 -144.703125 209.828125 -123.828125 L 209.828125 -78.078125 L 74.640625 -78.078125 C 75.097656 -65.472656 76.816406 -57.046875 79.796875 -52.796875 C 82.785156 -48.554688 88.289062 -46.4375 96.3125 -46.4375 L 194.6875 -46.4375 C 200.195312 -46.4375 203.753906 -44.945312 205.359375 -41.96875 C 206.960938 -38.988281 207.765625 -32.566406 207.765625 -22.703125 C 207.765625 -13.523438 207.019531 -7.445312 205.53125 -4.46875 C 204.039062 -1.488281 200.425781 0 194.6875 0 L 71.546875 0 C 59.160156 0 49.179688 -1.203125 41.609375 -3.609375 C 34.046875 -6.015625 28.257812 -10.425781 24.25 -16.84375 C 20.238281 -23.269531 17.546875 -32.5625 16.171875 -44.71875 C 14.796875 -56.875 14.109375 -72.582031 14.109375 -91.84375 C 14.109375 -110.414062 14.796875 -125.664062 16.171875 -137.59375 C 17.546875 -149.519531 20.179688 -158.75 24.078125 -165.28125 C 27.972656 -171.820312 33.757812 -176.410156 41.4375 -179.046875 C 49.125 -181.679688 59.160156 -183 71.546875 -183 Z M 96.3125 -141.03125 C 90.8125 -141.03125 86.566406 -140.226562 83.578125 -138.625 C 80.597656 -137.019531 78.476562 -133.804688 77.21875 -128.984375 C 75.957031 -124.171875 75.097656 -117.066406 74.640625 -107.671875 L 156.515625 -107.671875 C 156.515625 -121.203125 155.132812 -130.144531 152.375 -134.5 C 149.625 -138.851562 144.925781 -141.03125 138.28125 -141.03125 Z M 96.3125 -141.03125 "/></g></g></g><g fill="#000000" fill-opacity="1"><g transform="translate(1661.212114, 323.999975)"><g><path d="M 16.859375 -183 L 169.234375 -183 C 174.972656 -183 178.585938 -181.28125 180.078125 -177.84375 C 181.566406 -174.40625 182.3125 -167.296875 182.3125 -156.515625 C 182.3125 -146.421875 181.566406 -139.710938 180.078125 -136.390625 C 178.585938 -133.066406 174.972656 -131.40625 169.234375 -131.40625 L 80.5 -131.40625 L 80.5 -13.078125 C 80.5 -6.191406 78.429688 -1.832031 74.296875 0 C 70.171875 1.832031 61.800781 2.75 49.1875 2.75 C 40.25 2.75 33.425781 2.347656 28.71875 1.546875 C 24.019531 0.742188 20.867188 -0.800781 19.265625 -3.09375 C 17.660156 -5.382812 16.859375 -8.710938 16.859375 -13.078125 Z M 16.859375 -183 "/></g></g></g></g></g></g></g></g></mask><clipPath id="103c1079a3"><path d="M 0 0 L 1920 0 L 1920 420 L 0 420 Z M 0 0 " clip-rule="nonzero"/></clipPath><clipPath id="51bc5327e1"><rect x="0" width="1920" y="0" height="420"/></clipPath><clipPath id="41b78025d6"><rect x="0" width="1920" y="0" height="420"/></clipPath></defs><g transform="matrix(1, 0, 0, 1, 0, 0)"><g clip-path="url(#41b78025d6)"><g mask="url(#5da5b23e54)"><g transform="matrix(1, 0, 0, 1, 0, 0)"><g clip-path="url(#51bc5327e1)"><g clip-path="url(#103c1079a3)"><rect x="-698.88" fill="url(#e487c5d6de)" width="3317.76" y="-152.879994" height="725.759974"/></g></g></g></g></g></g></svg>